<svg width="85" height="36" viewBox="0 0 85 36" fill="none" xmlns="http://www.w3.org/2000/svg">
    <path d="M44.1701 9.42444C45.244 10.1642 45.9972 11.1199 46.6713 12.2263C46.6713 12.301 46.6713 12.3758 46.6713 12.4527C46.8201 12.4527 46.9689 12.4527 47.1223 12.4527C47.1659 12.331 47.1659 12.331 47.2103 12.2069C47.8301 10.7625 49.1633 9.55221 50.5813 8.92208C51.967 8.41156 53.6916 8.35764 55.073 8.91368C55.5147 9.14006 55.8855 9.40296 56.2536 9.73576C56.323 9.79647 56.3925 9.85718 56.464 9.91972C57.3986 10.7898 57.9358 11.9657 57.9974 13.2417C58.0013 13.4881 58.0023 13.7346 58.0009 13.981C57.9998 14.1761 57.9998 14.1761 57.9987 14.375C57.9619 16.1084 57.4222 17.5021 56.6064 19.0095C56.5143 19.1799 56.4239 19.3511 56.3344 19.5229C55.8796 20.3849 55.3579 21.1961 54.8162 22.0046C54.7489 22.1056 54.7489 22.1056 54.6802 22.2086C54.0362 23.1737 53.3792 24.119 52.6461 25.0188C52.5652 25.1202 52.4842 25.2216 52.4008 25.3261C52.1473 25.6413 51.89 25.953 51.6315 26.2641C51.5837 26.3225 51.5358 26.3809 51.4866 26.4411C48.5197 30.0589 44.7274 33.1986 39.9457 33.8162C39.5005 33.8549 39.0576 33.8852 38.611 33.8985C38.4633 33.903 38.3157 33.9075 38.1636 33.9122C37.7655 33.849 37.7655 33.849 37.4352 33.6478C37.0789 33.0908 37.1198 32.5726 37.1314 31.9244C37.1292 31.8022 37.127 31.6799 37.1248 31.5539C37.128 31.0273 37.1423 30.6691 37.4079 30.2086C37.937 29.8998 38.4452 29.8778 39.0478 29.8301C40.9506 29.6327 42.7846 29.0681 44.304 27.849C44.1713 27.3826 43.9708 27.1731 43.5937 26.8796C43.302 26.6318 43.0679 26.3399 42.8208 26.0483C42.6151 25.8137 42.3997 25.597 42.1761 25.3796C41.7374 24.945 41.3525 24.4781 40.9673 23.9955C40.7361 23.7093 40.499 23.4299 40.258 23.152C38.9231 21.6025 37.7824 19.9435 36.8636 18.1131C36.8111 18.009 36.8111 18.009 36.7576 17.9028C35.8774 16.1182 35.4095 14.056 35.9587 12.1065C36.4115 10.8046 37.2281 9.70206 38.463 9.05652C40.2777 8.21208 42.4728 8.40687 44.1701 9.42444Z" fill="url(#paint0_linear_33_5727)" />
    <path d="M80.8362 11.271C80.9863 11.3983 81.1344 11.5279 81.2801 11.6602C81.3488 11.7201 81.4175 11.7801 81.4884 11.8419C82.3897 12.6794 82.9857 13.8025 83.422 14.9432C83.4664 15.0569 83.5109 15.1705 83.5567 15.2877C84.1759 17.177 84.1748 19.6611 83.422 21.5092C83.3775 21.6193 83.3775 21.6193 83.3321 21.7316C82.841 22.9107 82.192 23.7958 81.2801 24.679C81.21 24.7529 81.14 24.8267 81.0678 24.9028C79.561 26.3888 77.4197 26.9767 75.3687 26.9998C73.0387 26.9755 70.9561 26.2766 69.2177 24.679C69.1005 24.5768 69.1005 24.5768 68.9808 24.4725C67.6065 23.2017 66.71 21.1734 66.6095 19.2963C66.5224 16.7563 66.8096 14.3313 68.5977 12.3889C68.8005 12.1791 69.0079 11.9763 69.2177 11.7734C69.3267 11.6606 69.3267 11.6606 69.4379 11.5456C72.424 8.64474 77.6586 8.86963 80.8362 11.271Z" fill="#0C0C0C" />
    <path d="M13.7252 4.51429C13.8071 4.54058 13.8891 4.56686 13.9735 4.59395C14.5787 4.80468 15.2162 5.08221 15.5766 5.63813C15.7734 6.16344 15.7115 6.74774 15.7121 7.30203C15.7148 7.43118 15.7176 7.56033 15.7205 7.69339C15.7209 7.81758 15.7213 7.94177 15.7218 8.06972C15.7227 8.18303 15.7236 8.29635 15.7246 8.4131C15.655 8.79929 15.5245 8.93258 15.2189 9.16995C14.7324 9.23409 14.4223 9.14619 13.9929 8.92231C11.9058 7.91993 9.3225 7.37237 7.05594 8.04053C6.29916 8.3271 5.80522 8.66829 5.41119 9.39637C5.20964 10.0036 5.22061 10.6289 5.41824 11.236C5.92612 11.9599 6.57992 12.3481 7.39105 12.6582C7.48598 12.6957 7.58091 12.7332 7.67871 12.7718C8.57039 13.1128 9.48373 13.3759 10.3996 13.6417C12.0626 14.1249 13.5733 14.67 14.8807 15.8492C14.9494 15.9052 15.0182 15.9613 15.089 16.019C16.1933 16.9939 16.6737 18.5621 16.8284 19.9861C16.8938 21.5974 16.341 23.1679 15.2893 24.3751C15.1177 24.5541 14.944 24.7312 14.768 24.9058C14.6986 24.9779 14.6293 25.05 14.5579 25.1243C12.8017 26.8236 10.2014 27.1067 7.88249 27.0815C5.69871 27.0243 2.62085 26.6359 1.01464 25.019C0.548327 24.4727 0.622462 23.8329 0.627124 23.1511C0.624872 23.0342 0.62262 22.9173 0.620299 22.7969C0.620622 22.2944 0.632009 21.9395 0.855671 21.4848C1.12737 21.2832 1.12737 21.2832 1.4823 21.2177C2.04685 21.3028 2.49198 21.5138 3.00154 21.7643C4.70604 22.5672 6.3414 23.0227 8.23654 23.0167C8.35054 23.0185 8.46455 23.0203 8.582 23.0222C9.66487 23.0229 10.7751 22.8187 11.6115 22.0756C12.0298 21.5439 12.1379 20.9836 12.1042 20.3156C12.0184 19.7457 11.8348 19.3328 11.4032 18.9452C10.4586 18.2686 9.34228 17.9055 8.24227 17.5703C8.15289 17.543 8.06352 17.5158 7.97144 17.4877C7.60159 17.3754 7.23158 17.2637 6.86077 17.1546C4.76177 16.5344 2.58664 15.699 1.38058 13.7434C0.500837 12.0429 0.434114 10.1242 0.985577 8.30984C1.61301 6.6055 2.66038 5.50478 4.27418 4.70533C7.18019 3.41175 10.7414 3.55179 13.7252 4.51429Z" fill="#0C0C0C" />
    <path d="M32.1708 11.2219C33.5149 12.534 34.0707 14.1484 34.1033 15.9972C34.1079 16.4444 34.1068 16.8914 34.1048 17.3386C34.1051 17.5784 34.1056 17.8182 34.1061 18.058C34.1068 18.5573 34.1058 19.0566 34.1037 19.5559C34.1011 20.1952 34.1026 20.8344 34.1053 21.4736C34.107 21.9674 34.1064 22.4611 34.1053 22.9549C34.105 23.1907 34.1053 23.4265 34.1064 23.6622C34.1075 23.9911 34.1058 24.3199 34.1033 24.6487C34.1042 24.7454 34.1051 24.8421 34.1061 24.9417C34.0975 25.547 33.9988 25.8998 33.594 26.3776C33.0261 26.672 32.4158 26.6417 31.7903 26.6394C31.6915 26.6412 31.5927 26.643 31.4909 26.6449C30.9076 26.6453 30.4848 26.6032 29.9866 26.2644C29.703 25.7613 29.6065 25.3679 29.6484 24.7927C29.574 24.7927 29.4996 24.7927 29.4229 24.7927C29.3971 24.8583 29.3712 24.924 29.3445 24.9917C28.7752 25.9742 27.1865 26.6944 26.1255 26.9861C24.1969 27.3312 22.3906 26.9562 20.7426 25.9247C19.7527 25.1751 19.0179 23.9885 18.8261 22.7549C18.6918 21.243 18.8499 19.9585 19.7487 18.694C20.9339 17.2991 22.6916 16.701 24.4627 16.5285C26.2165 16.4161 27.9206 16.7025 29.6484 16.9813C29.6343 16.7476 29.6191 16.514 29.6035 16.2804C29.591 16.0853 29.591 16.0853 29.5782 15.8862C29.4968 15.1659 29.2506 14.6092 28.7254 14.1087C27.9225 13.5076 27.0463 13.4115 26.0691 13.4224C25.96 13.4233 25.8509 13.4243 25.7385 13.4252C24.5476 13.4533 23.6405 13.7239 22.6238 14.3493C22.0566 14.6974 21.7395 14.8541 21.0807 14.7172C20.6857 14.4871 20.4392 14.2562 20.2916 13.8115C20.1635 12.132 20.1635 12.132 20.7426 11.4342C23.5484 8.71343 29.2518 8.79398 32.1708 11.2219Z" fill="#0C0C0C" />
    <path d="M62.2699 3.48822C62.3751 3.48683 62.4803 3.48545 62.5887 3.48402C63.8846 3.48125 63.8846 3.48125 64.3282 3.91657C64.5412 4.29279 64.5294 4.63907 64.526 5.06022C64.5266 5.1485 64.5272 5.23679 64.5278 5.32775C64.5294 5.62385 64.5286 5.9199 64.5278 6.21601C64.5285 6.42819 64.5293 6.64036 64.5302 6.85254C64.5322 7.4291 64.5321 8.00564 64.5314 8.58221C64.5311 9.0633 64.5318 9.54439 64.5324 10.0255C64.534 11.1603 64.5338 12.2951 64.5326 13.4299C64.5313 14.6012 64.5329 15.7725 64.5359 16.9438C64.5384 17.9489 64.5391 18.9541 64.5385 19.9593C64.5381 20.5598 64.5384 21.1604 64.5403 21.7609C64.542 22.3256 64.5416 22.8902 64.5395 23.4549C64.539 23.6622 64.5394 23.8696 64.5406 24.0769C64.5421 24.3598 64.5408 24.6425 64.5388 24.9254C64.5404 25.0487 64.5404 25.0487 64.5421 25.1744C64.5341 25.7192 64.415 25.9943 64.0313 26.3774C63.5286 26.679 62.9796 26.6414 62.4108 26.6392C62.2713 26.6419 62.2713 26.6419 62.129 26.6447C61.5138 26.6452 61.0726 26.5769 60.5367 26.2642C60.1755 25.8022 60.15 25.3841 60.1548 24.8173C60.1538 24.6854 60.1538 24.6854 60.1529 24.5509C60.1513 24.2567 60.1521 23.9625 60.1529 23.6684C60.1523 23.4573 60.1515 23.2462 60.1506 23.0351C60.1485 22.4621 60.1487 21.889 60.1493 21.316C60.1497 20.8377 60.149 20.3594 60.1483 19.8811C60.1467 18.753 60.1469 17.6248 60.1482 16.4967C60.1495 15.3324 60.1479 14.1682 60.1449 13.0039C60.1424 12.0045 60.1416 11.0051 60.1423 10.0057C60.1427 9.40868 60.1424 8.8117 60.1404 8.2147C60.1387 7.65345 60.1391 7.09224 60.1413 6.531C60.1417 6.32495 60.1413 6.1189 60.1402 5.91285C60.1387 5.63169 60.14 5.35068 60.142 5.06953C60.1409 4.98788 60.1398 4.90622 60.1387 4.82209C60.1466 4.27998 60.2659 4.00284 60.6494 3.62265C61.1468 3.41737 61.7402 3.48859 62.2699 3.48822Z" fill="#0C0B0C" />
    <path d="M41.8235 12.7924C42.8444 13.2946 43.5786 14.3458 44.2331 15.2476C44.38 15.447 44.527 15.6463 44.6739 15.8455C44.7449 15.9421 44.8158 16.0387 44.8889 16.1383C45.1722 16.523 45.4588 16.905 45.748 17.2854C45.8347 17.4002 45.9215 17.5151 46.0109 17.6334C46.198 17.8947 46.198 17.8947 46.4455 18C47.0608 18.0673 47.0608 18.0673 47.6107 17.8359C48.0266 17.436 48.3453 16.9839 48.679 16.5141C48.8198 16.3193 48.9607 16.1246 49.1018 15.93C49.1689 15.8371 49.236 15.7443 49.3052 15.6487C51.2952 12.9194 51.2952 12.9194 52.2512 12.7394C52.7697 12.7329 53.0161 12.7313 53.4419 13.0542C53.8671 13.6465 53.8317 14.2394 53.7731 14.9434C53.1575 18.2968 50.3436 21.4503 48.1735 23.9396C47.9314 24.2203 47.6959 24.5063 47.4601 24.7924C46.4293 23.9413 45.5054 22.982 44.6418 21.9623C44.5463 21.8538 44.4509 21.7454 44.3525 21.6337C40.0098 16.6796 40.0098 16.6796 40.0876 13.9387C40.1479 13.4638 40.2539 13.2464 40.5834 12.9057C40.9758 12.7087 41.3945 12.742 41.8235 12.7924Z" fill="#FCF1FE" />
    <path d="M77.2211 13.8111C78.353 14.5107 79.0531 15.5063 79.4013 16.7899C79.6538 18.2062 79.5961 19.7051 78.8759 20.9803C78.1316 22.0506 77.1439 22.7199 75.8683 22.9809C74.6658 23.0904 73.5499 22.8565 72.599 22.0753C71.5472 21.033 71.0395 19.783 70.9785 18.2899C71.0378 16.8827 71.4517 15.4874 72.411 14.4373C73.6013 13.34 75.7748 12.9929 77.2211 13.8111Z" fill="#F3EAF7" />
    <path d="M29.6489 19.5849C29.7093 20.6975 29.4029 21.5207 28.699 22.3864C27.9969 23.1689 27.0092 23.6255 25.9648 23.6834C25.8072 23.6858 25.6495 23.6875 25.4919 23.6887C25.4135 23.691 25.3352 23.6934 25.2545 23.6958C24.6129 23.7006 24.1636 23.5654 23.6895 23.1262C23.6356 23.0596 23.5816 22.9931 23.5261 22.9245C23.4707 22.858 23.4154 22.7914 23.3583 22.7229C23.0321 22.2534 23.0475 21.7182 23.1104 21.1698C23.4399 20.3563 23.9857 19.9188 24.7723 19.5553C26.3501 18.9808 28.0585 19.1472 29.6489 19.5849Z" fill="#F2EAF7" />
    <path d="M60.3116 4.30176C60.3488 4.30176 60.386 4.30176 60.4243 4.30176C60.4241 4.42667 60.4238 4.55158 60.4236 4.68027C60.4174 8.61162 60.4318 12.5428 60.4567 16.474C60.463 17.4708 60.4685 18.4677 60.4731 19.4645C60.4765 20.1785 60.4807 20.8924 60.4855 21.6064C60.4883 22.0284 60.4908 22.4505 60.4923 22.8725C60.494 23.3373 60.4975 23.8021 60.5011 24.2669C60.5013 24.4043 60.5016 24.5418 60.5018 24.6834C60.5031 24.8095 60.5043 24.9356 60.5056 25.0656C60.5062 25.1747 60.5069 25.2839 60.5075 25.3963C60.5393 25.7213 60.6279 25.9683 60.7625 26.264C60.4243 26.1508 60.4243 26.1508 60.2922 25.9712C60.1631 25.5933 60.1681 25.231 60.1709 24.8363C60.1705 24.7055 60.1705 24.7055 60.1701 24.572C60.1695 24.2796 60.1705 23.9871 60.1714 23.6947C60.1713 23.4851 60.1711 23.2755 60.1708 23.066C60.1702 22.4967 60.1711 21.9274 60.1722 21.3581C60.1732 20.7632 60.173 20.1683 60.173 19.5733C60.1731 18.5745 60.1741 17.5757 60.1756 16.577C60.1774 15.4206 60.178 14.2642 60.1779 13.1079C60.1778 11.997 60.1784 10.8861 60.1793 9.77527C60.1797 9.30172 60.18 8.82817 60.18 8.35462C60.1801 7.79776 60.1808 7.24089 60.1819 6.68403C60.1823 6.47907 60.1824 6.27411 60.1823 6.06915C60.1823 5.7906 60.1829 5.51206 60.1837 5.23352C60.1836 5.15135 60.1834 5.06917 60.1832 4.98451C60.1859 4.42789 60.1859 4.42789 60.3116 4.30176Z" fill="#020202" />
    <path d="M27.2813 13.0187C27.2813 13.056 27.2813 13.0934 27.2813 13.1319C27.0953 13.1319 26.9093 13.1319 26.7177 13.1319C26.7177 13.2066 26.7177 13.2813 26.7177 13.3583C26.048 13.3583 25.3784 13.3583 24.6885 13.3583C25.2462 12.7982 26.5368 13.0073 27.2813 13.0187Z" fill="#151515" />
    <path d="M24.4629 16.5283C25.1325 16.5283 25.8021 16.5283 26.4921 16.5283C26.0151 16.8875 25.9143 16.9146 25.3507 16.9104C25.2318 16.9113 25.1129 16.9121 24.9904 16.913C24.8908 16.8982 24.7911 16.8833 24.6884 16.8679C24.614 16.7559 24.5395 16.6438 24.4629 16.5283Z" fill="#202020" />
    <path d="M29.3099 24.6792C29.3471 24.7913 29.3843 24.9034 29.4227 25.0188C29.0135 25.355 28.6042 25.6913 28.1826 26.0377C28.1826 25.6981 28.1826 25.6981 28.4292 25.442C28.5338 25.3514 28.6385 25.2608 28.7463 25.1674C28.8509 25.0759 28.9555 24.9844 29.0633 24.8901C29.1854 24.7857 29.1854 24.7857 29.3099 24.6792Z" fill="#171617" />
    <path d="M80.4904 24.6792C80.6392 24.7913 80.788 24.9034 80.9413 25.0188C80.4391 25.355 80.4391 25.355 79.9268 25.6981C80.0497 25.2707 80.1419 24.9656 80.4904 24.6792Z" fill="#141314" />
    <path d="M7.66602 3.84912C8.03803 3.84912 8.41005 3.84912 8.79334 3.84912C8.79334 3.9612 8.79334 4.07327 8.79334 4.18874C8.42132 4.18874 8.0493 4.18874 7.66602 4.18874C7.66602 4.07667 7.66602 3.96459 7.66602 3.84912Z" fill="#141415" />
    <path d="M76.3193 22.8682C76.3193 22.9429 76.3193 23.0176 76.3193 23.0946C75.6782 23.198 75.1567 23.198 74.5156 23.0946C74.5156 23.0572 74.5156 23.0199 74.5156 22.9814C74.7317 22.9623 74.9477 22.9435 75.1638 22.9248C75.2842 22.9143 75.4045 22.9038 75.5285 22.8929C75.7915 22.8738 76.0556 22.8682 76.3193 22.8682Z" fill="#020202" />
    <path d="M20.9684 11.2075C21.0428 11.2449 21.1172 11.2822 21.1938 11.3207C21.1136 11.4258 21.1136 11.4258 21.0318 11.533C20.8529 11.763 20.8529 11.763 20.7429 12C20.6685 12 20.5941 12 20.5175 12C20.5547 12.1868 20.5919 12.3736 20.6302 12.566C20.5186 12.5287 20.407 12.4913 20.292 12.4528C20.4338 11.9425 20.6194 11.6047 20.9684 11.2075Z" fill="#151516" />
    <path d="M22.7719 10.3018C22.7347 10.4138 22.6974 10.5259 22.6591 10.6414C22.4262 10.7488 22.4262 10.7488 22.1448 10.8324C22.0516 10.8609 21.9585 10.8893 21.8625 10.9187C21.7906 10.9392 21.7186 10.9598 21.6445 10.981C21.6445 10.9063 21.6445 10.8316 21.6445 10.7546C21.7899 10.6786 21.9355 10.6032 22.0814 10.5282C22.1625 10.4861 22.2435 10.4441 22.3271 10.4008C22.5464 10.3018 22.5464 10.3018 22.7719 10.3018Z" fill="#040404" />
    <path d="M67.9772 13.3584C67.9772 13.8391 67.7723 14.0813 67.5262 14.4905C67.4518 14.4531 67.3774 14.4158 67.3008 14.3773C67.3922 14.2286 67.4838 14.08 67.5756 13.9315C67.6266 13.8488 67.6776 13.766 67.7301 13.6808C67.8644 13.4716 67.8644 13.4716 67.9772 13.3584Z" fill="#040304" />
    <path d="M33.9325 14.8301C33.9697 14.8301 34.0069 14.8301 34.0452 14.8301C34.0452 15.1289 34.0452 15.4278 34.0452 15.7357C33.9336 15.7731 33.822 15.8105 33.707 15.8489C33.7814 15.5127 33.8558 15.1765 33.9325 14.8301Z" fill="#121213" />
    <path d="M22.7718 10.1885C22.9973 10.3017 22.9973 10.3017 23.11 10.5281C22.9984 10.6962 22.9984 10.6962 22.8845 10.8677C22.7357 10.8304 22.5869 10.793 22.4336 10.7545C22.5452 10.5677 22.6568 10.3809 22.7718 10.1885Z" fill="#121212" />
    <defs>
        <linearGradient id="paint0_linear_33_5727" x1="39.0619" y1="8.49048" x2="46.9223" y2="33.8936" gradientUnits="userSpaceOnUse">
            <stop stop-color="#EBD2FE" />
            <stop offset="1" stop-color="#FBB9DD" />
        </linearGradient>
    </defs>
</svg>