<svg width="206" height="87" viewBox="0 0 206 87" fill="none" xmlns="http://www.w3.org/2000/svg">
    <path d="M107.047 22.7761C109.649 24.5638 111.475 26.8735 113.109 29.5473C113.109 29.7278 113.109 29.9084 113.109 30.0945C113.469 30.0945 113.83 30.0945 114.201 30.0945C114.307 29.8003 114.307 29.8003 114.415 29.5003C115.917 26.0098 119.148 23.0848 122.585 21.562C125.943 20.3283 130.122 20.198 133.47 21.5417C134.541 22.0888 135.439 22.7241 136.331 23.5284C136.5 23.6751 136.668 23.8218 136.842 23.973C139.107 26.0756 140.408 28.9174 140.558 32.001C140.567 32.5965 140.57 33.1922 140.566 33.7878C140.564 34.2591 140.564 34.2591 140.561 34.7399C140.472 38.9289 139.164 42.2971 137.187 45.9401C136.963 46.3517 136.744 46.7655 136.527 47.1805C135.425 49.2637 134.161 51.2242 132.848 53.1782C132.685 53.4221 132.685 53.4221 132.518 53.671C130.958 56.0034 129.365 58.288 127.589 60.4624C127.393 60.7075 127.196 60.9526 126.994 61.2051C126.38 61.9668 125.756 62.72 125.13 63.4718C125.014 63.613 124.898 63.7542 124.778 63.8997C117.588 72.6427 108.398 80.2303 96.8089 81.7229C95.73 81.8164 94.6566 81.8895 93.5742 81.9217C93.2163 81.9326 92.8585 81.9436 92.4899 81.9548C91.5251 81.802 91.5251 81.802 90.7247 81.3157C89.8611 79.9697 89.9603 78.7175 89.9883 77.1511C89.983 76.8555 89.9777 76.56 89.9723 76.2555C89.9801 74.983 90.0149 74.1173 90.6585 73.0045C91.9408 72.2581 93.1724 72.205 94.6329 72.0897C99.2442 71.6127 103.689 70.2482 107.371 67.302C107.05 66.175 106.564 65.6686 105.65 64.9594C104.943 64.3606 104.376 63.655 103.777 62.9503C103.278 62.3834 102.756 61.8598 102.214 61.3344C101.151 60.284 100.218 59.1558 99.2849 57.9894C98.7245 57.2978 98.1497 56.6226 97.5659 55.9509C94.3305 52.2064 91.5659 48.1972 89.3394 43.7737C89.2122 43.5222 89.2122 43.5222 89.0824 43.2655C86.9493 38.9527 85.8152 33.9689 87.1463 29.2577C88.2436 26.1115 90.2227 23.447 93.2156 21.8869C97.6136 19.8462 102.933 20.3169 107.047 22.7761Z" fill="url(#paint0_linear_35_6487)"/>
    <path d="M195.909 27.2388C196.272 27.5464 196.631 27.8596 196.984 28.1793C197.151 28.3242 197.318 28.4692 197.489 28.6185C199.674 30.6426 201.118 33.3566 202.175 36.1132C202.283 36.388 202.391 36.6627 202.502 36.9458C204.003 41.5117 204 47.5149 202.175 51.9812C202.068 52.2472 202.068 52.2472 201.958 52.5186C200.768 55.3681 199.195 57.5071 196.984 59.6415C196.815 59.82 196.645 59.9984 196.47 60.1823C192.818 63.7735 187.629 65.1943 182.658 65.25C177.011 65.1913 171.964 63.5023 167.751 59.6415C167.467 59.3945 167.467 59.3945 167.177 59.1425C163.846 56.0713 161.673 51.1695 161.43 46.6332C161.219 40.4951 161.915 34.6345 166.248 29.9405C166.74 29.4334 167.242 28.9433 167.751 28.4529C168.015 28.1804 168.015 28.1804 168.285 27.9025C175.522 20.892 188.208 21.4355 195.909 27.2388Z" fill="#0C0C0C"/>
    <path d="M33.2634 10.9092C33.4621 10.9727 33.6607 11.0363 33.8653 11.1017C35.332 11.611 36.877 12.2817 37.7505 13.6252C38.2273 14.8947 38.0773 16.3067 38.0788 17.6462C38.0855 17.9584 38.0921 18.2705 38.099 18.592C38.1001 18.8922 38.1012 19.1923 38.1022 19.5015C38.1045 19.7753 38.1067 20.0492 38.109 20.3313C37.9404 21.2646 37.6243 21.5867 36.8835 22.1604C35.7045 22.3154 34.953 22.103 33.9123 21.5619C28.8542 19.1395 22.5934 17.8162 17.1003 19.431C15.2662 20.1235 14.0692 20.948 13.1142 22.7076C12.6258 24.175 12.6524 25.6863 13.1313 27.1533C14.3622 28.9028 15.9467 29.8409 17.9125 30.5902C18.1425 30.6809 18.3726 30.7715 18.6096 30.8649C20.7706 31.689 22.9841 32.3248 25.2038 32.967C29.234 34.1348 32.8953 35.4522 36.0638 38.3019C36.2304 38.4373 36.397 38.5728 36.5686 38.7123C39.245 41.0684 40.4094 44.8581 40.7842 48.2995C40.9428 52.1934 39.6029 55.9889 37.0542 58.9063C36.6382 59.3388 36.2173 59.7666 35.7906 60.1887C35.6226 60.3629 35.4547 60.5371 35.2816 60.7166C31.0255 64.8234 24.7235 65.5076 19.1035 65.4467C13.811 65.3084 6.35176 64.3697 2.45907 60.4623C1.32894 59.142 1.50861 57.5958 1.51991 55.9481C1.51445 55.6656 1.50899 55.3832 1.50337 55.0921C1.50415 53.8779 1.53175 53.0202 2.0738 51.9213C2.73228 51.434 2.73228 51.434 3.59246 51.2758C4.96066 51.4815 6.03944 51.9914 7.27439 52.5967C11.4053 54.5371 15.3686 55.638 19.9616 55.6233C20.2378 55.6277 20.5141 55.6321 20.7988 55.6366C23.4232 55.6383 26.1139 55.1449 28.1408 53.3491C29.1547 52.0642 29.4166 50.71 29.335 49.0957C29.1269 47.7185 28.682 46.7206 27.636 45.7838C25.3467 44.1487 22.6413 43.2712 19.9754 42.4613C19.7588 42.3953 19.5422 42.3294 19.3191 42.2615C18.4227 41.9902 17.526 41.7203 16.6273 41.4567C11.5403 39.9578 6.26886 37.939 3.34593 33.2128C1.21385 29.1034 1.05215 24.4664 2.38863 20.0818C3.90923 15.963 6.44756 13.3029 10.3587 11.3709C17.4015 8.24473 26.0322 8.58317 33.2634 10.9092Z" fill="#0C0C0C"/>
    <path d="M77.9672 27.119C81.2248 30.2899 82.5718 34.1914 82.6507 38.6592C82.6619 39.74 82.6593 40.8203 82.6545 41.9011C82.6552 42.4806 82.6563 43.06 82.6576 43.6394C82.6592 44.8462 82.6569 46.0528 82.6518 47.2595C82.6455 48.8044 82.6492 50.3491 82.6557 51.894C82.6596 53.0873 82.6584 54.2805 82.6556 55.4737C82.6548 56.0435 82.6557 56.6133 82.6583 57.1832C82.661 57.9779 82.6568 58.7724 82.6507 59.5671C82.6529 59.8008 82.6551 60.0345 82.6574 60.2752C82.6367 61.738 82.3975 62.5906 81.4165 63.7452C80.0402 64.4568 78.5609 64.3834 77.0451 64.3778C76.8056 64.3822 76.5662 64.3867 76.3194 64.3912C74.906 64.3923 73.8813 64.2904 72.6738 63.4716C71.9866 62.2558 71.7526 61.3052 71.8541 59.915C71.6738 59.915 71.4935 59.915 71.3077 59.915C71.245 60.0737 71.1823 60.2324 71.1178 60.3959C69.7379 62.7705 65.8876 64.5108 63.3163 65.2157C58.6422 66.0497 54.2647 65.1435 50.2706 62.6508C47.8715 60.8391 46.0908 57.9717 45.626 54.9905C45.3004 51.3367 45.6838 48.2324 47.8619 45.1767C50.7342 41.8055 54.9941 40.3602 59.2865 39.9433C63.5369 39.6717 67.6668 40.3637 71.8541 41.0376C71.82 40.4729 71.7832 39.9083 71.7453 39.3437C71.715 38.8721 71.715 38.8721 71.6841 38.3909C71.4868 36.6503 70.8902 35.305 69.6172 34.0954C67.6714 32.6428 65.5479 32.4105 63.1797 32.4368C62.9153 32.4391 62.6508 32.4413 62.3784 32.4437C59.4921 32.5116 57.2939 33.1656 54.8298 34.6768C53.4552 35.5182 52.6868 35.8967 51.0902 35.5659C50.1327 35.0099 49.5355 34.4519 49.1777 33.3772C48.8671 29.3184 48.8671 29.3184 50.2706 27.632C57.0706 21.0568 70.8929 21.2515 77.9672 27.119Z" fill="#0C0C0C"/>
    <path d="M150.914 8.42979C151.169 8.42644 151.424 8.42309 151.687 8.41963C154.827 8.41295 154.827 8.41295 155.903 9.46496C156.419 10.3742 156.39 11.211 156.382 12.2288C156.383 12.4421 156.385 12.6555 156.386 12.8753C156.39 13.5909 156.388 14.3063 156.386 15.0219C156.388 15.5347 156.39 16.0475 156.392 16.5602C156.397 17.9536 156.397 19.3469 156.395 20.7403C156.394 21.9029 156.396 23.0655 156.397 24.2282C156.401 26.9707 156.401 29.7131 156.398 32.4556C156.395 35.2862 156.398 38.1167 156.406 40.9473C156.412 43.3765 156.414 45.8057 156.412 48.2349C156.411 49.6862 156.412 51.1375 156.416 52.5888C156.421 53.9534 156.42 55.318 156.414 56.6826C156.413 57.1837 156.414 57.6847 156.417 58.1857C156.421 58.8694 156.418 59.5527 156.413 60.2364C156.417 60.5343 156.417 60.5343 156.421 60.8382C156.402 62.1546 156.113 62.8196 155.183 63.7452C153.965 64.4741 152.634 64.3832 151.256 64.3779C150.918 64.3845 150.918 64.3845 150.573 64.3913C149.082 64.3924 148.012 64.2274 146.714 63.4716C145.838 62.3552 145.777 61.3448 145.788 59.975C145.786 59.6563 145.786 59.6563 145.784 59.3312C145.78 58.6202 145.782 57.9094 145.784 57.1984C145.782 56.6883 145.78 56.1782 145.778 55.6681C145.773 54.2833 145.773 52.8984 145.775 51.5136C145.776 50.3577 145.774 49.2019 145.772 48.046C145.769 45.3196 145.769 42.5933 145.772 39.8669C145.775 37.0533 145.771 34.2397 145.764 31.426C145.758 29.0108 145.756 26.5956 145.758 24.1803C145.759 22.7376 145.758 21.2948 145.753 19.8521C145.749 18.4958 145.75 17.1395 145.755 15.7832C145.756 15.2852 145.755 14.7873 145.753 14.2893C145.749 13.6098 145.752 12.9307 145.757 12.2513C145.754 12.054 145.752 11.8566 145.749 11.6533C145.768 10.3432 146.057 9.67345 146.987 8.75467C148.192 8.25857 149.63 8.43067 150.914 8.42979Z" fill="#0C0B0C"/>
    <path d="M101.361 30.915C103.835 32.1286 105.615 34.669 107.201 36.8484C107.557 37.3301 107.913 37.8118 108.269 38.2933C108.441 38.5267 108.613 38.7602 108.79 39.0008C109.477 39.9306 110.172 40.8538 110.872 41.7729C111.083 42.0505 111.293 42.328 111.509 42.614C111.963 43.2456 111.963 43.2456 112.563 43.4999C114.054 43.6627 114.054 43.6627 115.387 43.1035C116.395 42.137 117.167 41.0443 117.976 39.9091C118.317 39.4383 118.658 38.9677 119 38.4974C119.163 38.2731 119.326 38.0487 119.493 37.8176C124.316 31.2218 124.316 31.2218 126.633 30.7868C127.89 30.7711 128.487 30.7672 129.519 31.5477C130.549 32.9789 130.463 34.4118 130.321 36.1131C128.829 44.2173 122.01 51.8381 116.751 57.8539C116.164 58.5324 115.593 59.2236 115.022 59.915C112.523 57.8581 110.284 55.5399 108.191 53.0754C107.96 52.8134 107.729 52.5513 107.49 52.2814C96.9656 40.309 96.9656 40.309 97.1542 33.6851C97.3003 32.5375 97.5572 32.012 98.3559 31.1886C99.3067 30.7126 100.322 30.7931 101.361 30.915Z" fill="#FDEEFA"/>
    <path d="M187.149 33.3775C189.892 35.068 191.588 37.4741 192.432 40.5762C193.044 43.9989 192.904 47.6213 191.159 50.7031C189.355 53.2894 186.961 54.9069 183.87 55.5378C180.956 55.8023 178.251 55.2371 175.947 53.3492C173.398 50.8302 172.167 47.8094 172.02 44.2012C172.163 40.8004 173.166 37.4284 175.491 34.8907C178.376 32.2389 183.644 31.4001 187.149 33.3775Z" fill="#F4E6F2"/>
    <path d="M71.8537 47.3302C72.0002 50.019 71.2576 52.0085 69.5517 54.1004C67.8501 55.9915 65.4565 57.095 62.9253 57.2349C62.5433 57.2407 62.1612 57.2449 61.7791 57.2477C61.5893 57.2533 61.3995 57.259 61.2039 57.2648C59.6491 57.2765 58.5601 56.9498 57.411 55.8883C57.2803 55.7275 57.1497 55.5667 57.0151 55.401C56.8809 55.2402 56.7467 55.0794 56.6084 54.9137C55.8179 53.7792 55.8551 52.4857 56.0076 51.1604C56.8062 49.1944 58.1289 48.137 60.0353 47.2586C63.8592 45.8702 67.9995 46.2725 71.8537 47.3302Z" fill="#F4E6F2"/>
    <path d="M146.167 10.3962C146.258 10.3962 146.348 10.3962 146.441 10.3962C146.44 10.6981 146.44 11 146.439 11.311C146.424 20.8117 146.459 30.312 146.519 39.8126C146.534 42.2215 146.548 44.6305 146.559 47.0395C146.567 48.765 146.577 50.4904 146.589 52.2158C146.596 53.2357 146.602 54.2556 146.606 55.2756C146.61 56.3988 146.618 57.522 146.627 58.6452C146.627 58.9774 146.628 59.3096 146.629 59.6518C146.632 59.9566 146.635 60.2614 146.638 60.5754C146.639 60.8392 146.641 61.103 146.642 61.3747C146.719 62.16 146.934 62.757 147.26 63.4717C146.441 63.1981 146.441 63.1981 146.12 62.764C145.808 61.8508 145.82 60.9752 145.827 60.0214C145.826 59.7052 145.826 59.7052 145.825 59.3827C145.823 58.6759 145.826 57.9692 145.828 57.2624C145.828 56.756 145.827 56.2495 145.826 55.7431C145.825 54.3673 145.827 52.9916 145.83 51.6158C145.832 50.1781 145.832 48.7403 145.832 47.3025C145.832 44.8888 145.834 42.475 145.838 40.0613C145.842 37.2668 145.844 34.4722 145.844 31.6777C145.843 28.9931 145.845 26.3085 145.847 23.6239C145.848 22.4795 145.849 21.3351 145.849 20.1907C145.849 18.8449 145.851 17.4992 145.853 16.1534C145.854 15.6581 145.854 15.1628 145.854 14.6674C145.854 13.9943 145.856 13.3211 145.858 12.648C145.857 12.4494 145.857 12.2508 145.856 12.0462C145.863 10.7011 145.863 10.7011 146.167 10.3962Z" fill="#020202"/>
    <path d="M66.1168 31.4622C66.1168 31.5525 66.1168 31.6427 66.1168 31.7358C65.666 31.7358 65.2152 31.7358 64.7508 31.7358C64.7508 31.9163 64.7508 32.0969 64.7508 32.2829C63.1279 32.2829 61.5051 32.2829 59.833 32.2829C61.1846 30.9295 64.3124 31.4347 66.1168 31.4622Z" fill="#151515"/>
    <path d="M59.2861 39.9434C60.909 39.9434 62.5319 39.9434 64.2039 39.9434C63.0481 40.8114 62.8036 40.8768 61.4377 40.8667C61.1496 40.8688 60.8615 40.8709 60.5647 40.8731C60.3231 40.8371 60.0815 40.8012 59.8326 40.7641C59.6522 40.4933 59.4719 40.2224 59.2861 39.9434Z" fill="#202020"/>
    <path d="M71.0348 59.6416C71.125 59.9125 71.2151 60.1833 71.308 60.4624C70.3163 61.2749 69.3245 62.0875 68.3027 62.9246C68.3027 62.1039 68.3027 62.1039 68.9004 61.4851C69.154 61.2661 69.4075 61.0471 69.6688 60.8214C69.9224 60.6003 70.1759 60.3792 70.4372 60.1514C70.733 59.899 70.733 59.899 71.0348 59.6416Z" fill="#171617"/>
    <path d="M195.071 59.6416C195.432 59.9125 195.792 60.1833 196.164 60.4624C194.947 61.2749 194.947 61.2749 193.705 62.1039C194.003 61.071 194.226 60.3337 195.071 59.6416Z" fill="#141314"/>
    <path d="M18.5781 9.302C19.4797 9.302 20.3813 9.302 21.3102 9.302C21.3102 9.57285 21.3102 9.8437 21.3102 10.1228C20.4086 10.1228 19.507 10.1228 18.5781 10.1228C18.5781 9.85191 18.5781 9.58106 18.5781 9.302Z" fill="#141415"/>
    <path d="M184.963 55.2642C184.963 55.4447 184.963 55.6253 184.963 55.8113C183.409 56.0614 182.146 56.0614 180.592 55.8113C180.592 55.721 180.592 55.6308 180.592 55.5377C181.115 55.4916 181.639 55.4461 182.163 55.401C182.454 55.3756 182.746 55.3502 183.046 55.324C183.684 55.2777 184.324 55.2642 184.963 55.2642Z" fill="#020202"/>
    <path d="M50.817 27.085C50.9973 27.1752 51.1776 27.2655 51.3634 27.3585C51.169 27.6125 51.169 27.6125 50.9707 27.8715C50.5372 28.4275 50.5372 28.4275 50.2706 29.0001C50.0903 29.0001 49.9099 29.0001 49.7242 29.0001C49.8143 29.4515 49.9045 29.9029 49.9974 30.368C49.7269 30.2777 49.4564 30.1874 49.1777 30.0944C49.5214 28.8611 49.9712 28.0449 50.817 27.085Z" fill="#151516"/>
    <path d="M55.1882 24.8962C55.098 25.1671 55.0078 25.4379 54.9149 25.717C54.3504 25.9767 54.3504 25.9767 53.6684 26.1787C53.4427 26.2474 53.2169 26.3162 52.9843 26.3871C52.81 26.4368 52.6357 26.4865 52.4561 26.5377C52.4561 26.3572 52.4561 26.1766 52.4561 25.9906C52.8083 25.8069 53.1613 25.6248 53.5147 25.4434C53.7113 25.3418 53.9078 25.2403 54.1103 25.1356C54.6417 24.8962 54.6417 24.8962 55.1882 24.8962Z" fill="#040404"/>
    <path d="M164.746 32.283C164.746 33.4447 164.249 34.0299 163.653 35.0188C163.473 34.9285 163.292 34.8382 163.106 34.7452C163.328 34.3859 163.55 34.0268 163.772 33.668C163.896 33.468 164.02 33.2681 164.147 33.062C164.472 32.5565 164.472 32.5565 164.746 32.283Z" fill="#040304"/>
    <path d="M82.2359 35.8396C82.326 35.8396 82.4162 35.8396 82.5091 35.8396C82.5091 36.5619 82.5091 37.2841 82.5091 38.0283C82.2386 38.1186 81.9681 38.2088 81.6895 38.3019C81.8698 37.4893 82.0501 36.6768 82.2359 35.8396Z" fill="#121213"/>
    <path d="M55.1888 24.6226C55.7352 24.8961 55.7352 24.8961 56.0084 25.4433C55.7379 25.8496 55.7379 25.8496 55.462 26.2641C55.1013 26.1738 54.7407 26.0835 54.3691 25.9905C54.6396 25.5391 54.9101 25.0877 55.1888 24.6226Z" fill="#121212"/>
    <defs>
    <linearGradient id="paint0_linear_35_6487" x1="94.667" y1="20.519" x2="113.618" y2="81.9402" gradientUnits="userSpaceOnUse">
    <stop stop-color="#EBD2FE"/>
    <stop offset="1" stop-color="#FBB9DD"/>
    </linearGradient>
    </defs>
    </svg>
    