<svg width="18" height="18" viewBox="0 0 18 18" fill="none" xmlns="http://www.w3.org/2000/svg">
    <g clip-path="url(#clip0_479_9148)">
    <path fill-rule="evenodd" clip-rule="evenodd" d="M5.02586 1.9672C5.81206 1.18124 6.81366 0.646045 7.90402 0.429293C8.99437 0.212542 10.1245 0.323965 11.1515 0.749476C12.1786 1.17499 13.0564 1.89548 13.674 2.81984C14.2915 3.74421 14.6212 4.83094 14.6211 5.94263C14.6211 6.64077 14.7343 7.30806 14.9169 8.01649C14.9631 8.16049 15.0133 8.29592 15.0673 8.42277C15.1406 8.59377 15.2884 8.74163 15.5713 8.9242C15.6819 8.99363 15.795 9.0592 15.9236 9.13249L16.0431 9.20192C16.2154 9.30092 16.407 9.41663 16.5909 9.55292C17.2569 10.0453 17.5011 10.8039 17.4677 11.4879C17.4356 12.1526 17.1373 12.8469 16.5806 13.2661C16.5447 13.2937 16.5073 13.3195 16.4687 13.3432C16.3754 13.403 16.2784 13.4567 16.1781 13.5039C15.7948 13.679 15.3952 13.8159 14.985 13.9128C13.8664 14.1956 12.0137 14.4643 9 14.4643C5.98628 14.4643 4.13357 14.1956 3.015 13.9128C2.60484 13.8159 2.20521 13.679 1.82186 13.5039C1.69033 13.4418 1.56431 13.3687 1.44514 13.2853L1.41943 13.2661C0.862713 12.8469 0.565713 12.1526 0.532284 11.4879C0.498855 10.8039 0.743141 10.0453 1.40914 9.55292C1.58567 9.42675 1.76848 9.3096 1.95686 9.20192L2.07643 9.13249C2.205 9.0592 2.31814 8.99363 2.42871 8.92292C2.71157 8.74292 2.85943 8.59377 2.93143 8.42277C3.19243 7.81077 3.37886 7.00335 3.37886 5.94135C3.37886 4.4512 3.97157 3.02277 5.02457 1.96849M7.506 15.4106C7.38375 15.3689 7.25175 15.3649 7.12721 15.3992C7.00267 15.4336 6.89137 15.5047 6.80782 15.6032C6.72427 15.7018 6.67235 15.8232 6.65883 15.9517C6.6453 16.0801 6.6708 16.2097 6.732 16.3235C6.95169 16.7336 7.27854 17.0765 7.67772 17.3155C8.0769 17.5545 8.53345 17.6807 8.99871 17.6807C9.46398 17.6807 9.92053 17.5545 10.3197 17.3155C10.7189 17.0765 11.0457 16.7336 11.2654 16.3235C11.3264 16.2098 11.3518 16.0804 11.3383 15.9522C11.3248 15.8239 11.273 15.7026 11.1897 15.6042C11.1063 15.5057 10.9953 15.4346 10.871 15.4001C10.7467 15.3656 10.6149 15.3692 10.4927 15.4106C10.1661 15.5212 9.68529 15.6061 8.99871 15.6061C8.31214 15.6061 7.83257 15.5212 7.506 15.4106Z" fill="black"/>
    </g>
    <defs>
    <clipPath id="clip0_479_9148">
    <rect width="18" height="18" fill="white"/>
    </clipPath>
    </defs>
    </svg>
    