<svg width="32" height="32" viewBox="0 0 32 32" fill="none" xmlns="http://www.w3.org/2000/svg">
    <path fill-rule="evenodd" clip-rule="evenodd" d="M16.6407 20.4801C19.017 20.4801 21.296 19.5361 22.9763 17.8557C24.6567 16.1754 25.6007 13.8964 25.6007 11.5201C25.6007 9.14372 24.6567 6.86471 22.9763 5.18438C21.296 3.50406 19.017 2.56006 16.6407 2.56006C14.2643 2.56006 11.9853 3.50406 10.305 5.18438C8.62466 6.86471 7.68066 9.14372 7.68066 11.5201C7.68066 13.8964 8.62466 16.1754 10.305 17.8557C11.9853 19.5361 14.2643 20.4801 16.6407 20.4801ZM16.6407 7.68006C16.2771 7.68006 16.0339 8.11526 15.5475 8.9895L15.4221 9.21478C15.2839 9.4631 15.2147 9.58598 15.1072 9.6679C14.9984 9.74982 14.864 9.78054 14.5952 9.8407L14.352 9.89702C13.4074 10.1108 12.9351 10.217 12.8224 10.578C12.7098 10.9389 13.0323 11.3165 13.6762 12.0692L13.8426 12.2637C14.0256 12.4775 14.1178 12.5837 14.1587 12.7169C14.1997 12.85 14.1856 12.9921 14.1587 13.2775L14.1331 13.5373C14.0359 14.5421 13.9872 15.0452 14.2803 15.2679C14.5747 15.4906 15.0176 15.2871 15.9021 14.8801L16.1299 14.7751C16.3821 14.6599 16.5075 14.6023 16.6407 14.6023C16.7738 14.6023 16.8992 14.6599 17.1514 14.7751L17.3792 14.8801C18.2637 15.2884 18.7066 15.4906 19.001 15.2679C19.2954 15.0452 19.2455 14.5421 19.1482 13.5373L19.1226 13.2775C19.0957 12.9921 19.0816 12.85 19.1226 12.7169C19.1635 12.5837 19.2557 12.4775 19.4387 12.2637L19.6051 12.0692C20.249 11.3165 20.5715 10.9402 20.4589 10.578C20.3463 10.217 19.8739 10.1108 18.9293 9.89702L18.6861 9.8407C18.4173 9.78054 18.2829 9.7511 18.1741 9.6679C18.0666 9.58598 17.9975 9.4631 17.8592 9.21478L17.7338 8.9895C17.2474 8.11526 17.0042 7.68006 16.6407 7.68006Z" fill="url(#paint0_linear_70_9657)"/>
    <path d="M7.03484 16.6336L5.111 18.624C4.4198 19.3408 4.0742 19.6979 3.95388 20.0013C3.68124 20.6925 3.91548 21.4579 4.50812 21.8214C4.76924 21.9802 5.23772 22.0301 6.17852 22.1286C6.70844 22.185 6.97468 22.2131 7.19612 22.2989C7.69404 22.4896 8.07932 22.8902 8.26492 23.4048C8.34684 23.6352 8.37372 23.9091 8.42748 24.4582C8.52348 25.431 8.57212 25.9174 8.72572 26.1875C9.07644 26.8019 9.81756 27.0438 10.4844 26.761C10.7763 26.6381 11.1219 26.2797 11.8144 25.5642L14.9913 22.2746C13.3175 22.0181 11.7267 21.3745 10.3454 20.395C8.96409 19.4155 7.8305 18.1284 7.03484 16.6336ZM18.2924 22.2758L21.4694 25.5654C22.1606 26.2822 22.5062 26.6394 22.798 26.7635C23.4649 27.0451 24.206 26.8032 24.5568 26.1888C24.7104 25.92 24.7577 25.4336 24.8537 24.4608C24.9088 23.9104 24.9356 23.6365 25.0176 23.4061C25.2019 22.8915 25.5884 22.4909 26.0864 22.3002C26.3078 22.2144 26.5728 22.1875 27.104 22.1312C28.0435 22.0314 28.5132 21.9814 28.7744 21.8227C29.367 21.4592 29.6012 20.6925 29.3286 20.0026C29.2083 19.6992 28.8627 19.3408 28.1715 18.6253L26.2476 16.6336C25.452 18.1284 24.3184 19.4168 22.9371 20.3963C21.5558 21.3758 19.965 22.0194 18.2912 22.2758" fill="url(#paint1_linear_70_9657)"/>
    <path d="M15.3604 4.01489C17.5446 4.01489 19.6453 4.82822 21.2568 6.28735L21.5723 6.58813C23.2198 8.23563 24.1455 10.4701 24.1455 12.8C24.1455 14.9843 23.3322 17.085 21.873 18.6965L21.5723 19.012C19.9248 20.6595 17.6903 21.5852 15.3604 21.5852C13.1761 21.5852 11.0754 20.7719 9.46387 19.3127L9.14844 19.012C7.50095 17.3645 6.5752 15.13 6.5752 12.8C6.57521 10.6158 7.38851 8.51507 8.84766 6.90356L9.14844 6.58813C10.7959 4.94064 13.0304 4.0149 15.3604 4.01489ZM13.2764 10.9495L13.2754 10.9504L13.0322 11.0061C12.5663 11.1115 12.1962 11.1946 11.9307 11.2991C11.6954 11.3916 11.5079 11.5146 11.4111 11.7151L11.375 11.8059C11.2958 12.0599 11.3805 12.3012 11.5371 12.55C11.6148 12.6735 11.7168 12.8085 11.8389 12.9592L12.2627 13.4631L12.4297 13.6575C12.5744 13.8264 12.6447 13.9111 12.6826 13.9807L12.7109 14.0481C12.7392 14.14 12.7323 14.2405 12.7041 14.5403L12.6787 14.8C12.6306 15.2969 12.5925 15.6891 12.6055 15.9836C12.6168 16.2415 12.6686 16.4645 12.8223 16.6233L12.8945 16.6877C13.1081 16.8492 13.3615 16.8371 13.6377 16.7581C13.7748 16.7188 13.93 16.6592 14.1055 16.5842L14.6953 16.3186L14.9229 16.2141C15.1895 16.0923 15.2744 16.0569 15.3604 16.0569C15.4463 16.0569 15.5315 16.0915 15.7979 16.2131V16.2141L16.0254 16.3186C16.4622 16.5203 16.8088 16.6807 17.083 16.759C17.3247 16.8281 17.549 16.8452 17.7441 16.7405L17.8262 16.6877C18.0373 16.528 18.1034 16.2783 18.1162 15.9836C18.1226 15.8364 18.1156 15.6648 18.1016 15.468L18.042 14.8L18.0166 14.5403C17.9955 14.3159 17.9865 14.2033 17.9951 14.1223L18.0098 14.0481C18.0237 14.003 18.046 13.9618 18.0889 13.9036L18.291 13.6575L18.458 13.4631C18.7761 13.0912 19.0281 12.7969 19.1836 12.55C19.3207 12.3323 19.4029 12.1206 19.3682 11.9006L19.3457 11.8059C19.2659 11.5501 19.059 11.4048 18.79 11.2991C18.5243 11.1946 18.1538 11.1116 17.6875 11.0061H17.6885L17.4453 10.9504H17.4443C17.2311 10.9027 17.1278 10.8773 17.0596 10.845L17 10.8088L16.9482 10.76C16.9311 10.7405 16.9135 10.7169 16.8936 10.6868L16.7314 10.4094L16.6064 10.1848C16.3662 9.75295 16.1767 9.41162 16 9.18091C15.8231 8.95001 15.6259 8.7854 15.3604 8.7854C15.0948 8.78542 14.8976 8.95002 14.7207 9.18091C14.6325 9.29617 14.5408 9.43881 14.4414 9.60669L14.1143 10.1848L13.9893 10.4094C13.8444 10.6696 13.7929 10.7532 13.7217 10.8079C13.6857 10.8349 13.6451 10.8544 13.5781 10.8752L13.2764 10.9495Z" stroke="black" stroke-opacity="0.77" stroke-width="0.35"/>
    <mask id="path-4-inside-1_70_9657" fill="white">
    <path d="M5.75457 17.9136L3.83073 19.904C3.13953 20.6208 2.79393 20.978 2.67361 21.2813C2.40097 21.9725 2.63521 22.738 3.22785 23.1015C3.48897 23.2602 3.95745 23.3101 4.89825 23.4087C5.42817 23.465 5.69441 23.4932 5.91585 23.5789C6.41377 23.7696 6.79905 24.1703 6.98465 24.6848C7.06657 24.9152 7.09345 25.1892 7.14721 25.7383C7.24321 26.7111 7.29185 27.1975 7.44545 27.4676C7.79617 28.082 8.53729 28.3239 9.20417 28.041C9.49601 27.9181 9.84161 27.5597 10.5341 26.8442L13.711 23.5546C12.0372 23.2982 10.4464 22.6546 9.0651 21.6751C7.68381 20.6955 6.55023 19.4084 5.75457 17.9136ZM17.0122 23.5559L20.1891 26.8455C20.8803 27.5623 21.2259 27.9194 21.5178 28.0436C22.1846 28.3252 22.9258 28.0832 23.2765 27.4688C23.4301 27.2 23.4774 26.7136 23.5734 25.7408C23.6285 25.1904 23.6554 24.9165 23.7373 24.6861C23.9216 24.1716 24.3082 23.7709 24.8061 23.5802C25.0275 23.4944 25.2925 23.4676 25.8237 23.4112C26.7632 23.3114 27.233 23.2615 27.4941 23.1028C28.0867 22.7392 28.321 21.9725 28.0483 21.2826C27.928 20.9792 27.5824 20.6208 26.8912 19.9053L24.9674 17.9136C24.1717 19.4084 23.0381 20.6968 21.6568 21.6763C20.2756 22.6559 18.6847 23.2994 17.0109 23.5559"/>
    </mask>
    <path d="M5.75457 17.9136L6.06352 17.7492L5.83738 17.3243L5.50291 17.6704L5.75457 17.9136ZM3.83073 19.904L3.57907 19.6608L3.57878 19.6611L3.83073 19.904ZM2.67361 21.2813L2.34826 21.1523L2.34802 21.1529L2.67361 21.2813ZM3.22785 23.1015L3.04484 23.3998L3.04605 23.4006L3.22785 23.1015ZM4.89825 23.4087L4.93524 23.0606L4.93471 23.0606L4.89825 23.4087ZM5.91585 23.5789L5.78944 23.9053L5.79065 23.9058L5.91585 23.5789ZM6.98465 24.6848L7.31442 24.5676L7.31388 24.5661L6.98465 24.6848ZM7.14721 25.7383L6.79887 25.7724L6.7989 25.7726L7.14721 25.7383ZM7.44545 27.4676L7.14121 27.6406L7.14148 27.6411L7.44545 27.4676ZM9.20417 28.041L9.06835 27.7184L9.06749 27.7188L9.20417 28.041ZM10.5341 26.8442L10.7856 27.0876L10.7858 27.0873L10.5341 26.8442ZM13.711 23.5546L13.9628 23.7977L14.4328 23.3111L13.764 23.2086L13.711 23.5546ZM20.1891 26.8455L20.4411 26.6025L20.4409 26.6023L20.1891 26.8455ZM21.5178 28.0436L21.3807 28.3656L21.3816 28.366L21.5178 28.0436ZM23.2765 27.4688L22.9726 27.2952L22.9725 27.2953L23.2765 27.4688ZM23.5734 25.7408L23.2252 25.706L23.2251 25.7065L23.5734 25.7408ZM23.7373 24.6861L23.4078 24.5681L23.4075 24.5689L23.7373 24.6861ZM24.8061 23.5802L24.9313 23.907L24.9325 23.9066L24.8061 23.5802ZM25.8237 23.4112L25.8606 23.7593L25.8607 23.7593L25.8237 23.4112ZM27.4941 23.1028L27.6759 23.4018L27.6771 23.4011L27.4941 23.1028ZM28.0483 21.2826L28.3738 21.154L28.3737 21.1536L28.0483 21.2826ZM26.8912 19.9053L26.6395 20.1485L26.6395 20.1485L26.8912 19.9053ZM24.9674 17.9136L25.2191 17.6705L24.8846 17.3242L24.6584 17.7492L24.9674 17.9136ZM5.75457 17.9136L5.50291 17.6704L3.57907 19.6608L3.83073 19.904L4.08239 20.1473L6.00623 18.1569L5.75457 17.9136ZM3.83073 19.904L3.57878 19.6611C3.2361 20.0165 2.96901 20.293 2.77356 20.5185C2.58063 20.7412 2.43121 20.9431 2.34826 21.1523L2.67361 21.2813L2.99895 21.4104C3.03633 21.3161 3.11987 21.1878 3.30261 20.9769C3.48285 20.7689 3.73415 20.5084 4.08267 20.147L3.83073 19.904ZM2.67361 21.2813L2.34802 21.1529C2.01906 21.9869 2.2939 22.9392 3.04484 23.3998L3.22785 23.1015L3.41085 22.8031C2.97651 22.5367 2.78287 21.9582 2.99919 21.4097L2.67361 21.2813ZM3.22785 23.1015L3.04605 23.4006C3.23659 23.5164 3.47477 23.5768 3.75053 23.6229C4.03091 23.6697 4.39575 23.7079 4.86178 23.7568L4.89825 23.4087L4.93471 23.0606C4.45994 23.0108 4.12014 22.9749 3.86581 22.9324C3.60684 22.8892 3.48022 22.8453 3.40964 22.8024L3.22785 23.1015ZM4.89825 23.4087L4.86126 23.7567C5.41255 23.8153 5.62194 23.8404 5.78944 23.9053L5.91585 23.5789L6.04225 23.2525C5.76687 23.1459 5.44378 23.1147 4.93524 23.0606L4.89825 23.4087ZM5.91585 23.5789L5.79065 23.9058C6.18978 24.0586 6.50295 24.3809 6.65541 24.8036L6.98465 24.6848L7.31388 24.5661C7.09514 23.9596 6.63775 23.4806 6.04104 23.2521L5.91585 23.5789ZM6.98465 24.6848L6.65487 24.8021C6.71888 24.9821 6.7432 25.2037 6.79887 25.7724L7.14721 25.7383L7.49554 25.7042C7.4437 25.1746 7.41425 24.8483 7.31442 24.5676L6.98465 24.6848ZM7.14721 25.7383L6.7989 25.7726C6.84649 26.2549 6.88367 26.6314 6.92894 26.9206C6.97341 27.2046 7.03123 27.4472 7.14121 27.6406L7.44545 27.4676L7.74969 27.2945C7.70606 27.2178 7.66276 27.0821 7.62051 26.8123C7.57906 26.5475 7.54392 26.1944 7.49551 25.7039L7.14721 25.7383ZM7.44545 27.4676L7.14148 27.6411C7.58329 28.415 8.51651 28.7129 9.34084 28.3632L9.20417 28.041L9.06749 27.7188C8.55807 27.9349 8.00904 27.7489 7.74941 27.294L7.44545 27.4676ZM9.20417 28.041L9.33999 28.3636C9.54576 28.2769 9.74263 28.1203 9.95699 27.9214C10.175 27.719 10.4423 27.4423 10.7856 27.0876L10.5341 26.8442L10.2826 26.6008C9.93338 26.9616 9.68166 27.2219 9.48078 27.4083C9.27626 27.5981 9.15441 27.6822 9.06835 27.7184L9.20417 28.041ZM10.5341 26.8442L10.7858 27.0873L13.9628 23.7977L13.711 23.5546L13.4593 23.3115L10.2823 26.6011L10.5341 26.8442ZM13.711 23.5546L13.764 23.2086C12.1441 22.9604 10.6044 22.3376 9.26756 21.3895L9.0651 21.6751L8.86264 21.9606C10.2884 22.9716 11.9304 23.6359 13.658 23.9006L13.711 23.5546ZM9.0651 21.6751L9.26756 21.3895C7.93061 20.4415 6.83353 19.1957 6.06352 17.7492L5.75457 17.9136L5.44561 18.0781C6.26693 19.621 7.43702 20.9496 8.86264 21.9606L9.0651 21.6751ZM17.0122 23.5559L16.7604 23.799L19.9374 27.0886L20.1891 26.8455L20.4409 26.6023L17.2639 23.3127L17.0122 23.5559ZM20.1891 26.8455L19.9372 27.0884C20.2801 27.444 20.547 27.7207 20.765 27.9232C20.9795 28.1224 21.1759 28.2784 21.3807 28.3656L21.5178 28.0436L21.6548 27.7215C21.5678 27.6845 21.4455 27.5999 21.2414 27.4103C21.0408 27.224 20.7894 26.9638 20.4411 26.6025L20.1891 26.8455ZM21.5178 28.0436L21.3816 28.366C22.2057 28.714 23.1386 28.4163 23.5805 27.6423L23.2765 27.4688L22.9725 27.2953C22.7129 27.7502 22.1636 27.9364 21.6539 27.7211L21.5178 28.0436ZM23.2765 27.4688L23.5804 27.6425C23.6908 27.4491 23.7483 27.2062 23.7924 26.9226C23.8373 26.6338 23.8742 26.2572 23.9218 25.7752L23.5734 25.7408L23.2251 25.7065C23.1767 26.1972 23.1419 26.5503 23.1007 26.8151C23.0587 27.0851 23.0157 27.2197 22.9726 27.2952L23.2765 27.4688ZM23.5734 25.7408L23.9217 25.7757C23.9788 25.2052 24.0029 24.9837 24.0671 24.8034L23.7373 24.6861L23.4075 24.5689C23.3078 24.8493 23.2782 25.1757 23.2252 25.706L23.5734 25.7408ZM23.7373 24.6861L24.0668 24.8041C24.2178 24.3825 24.5317 24.0601 24.9313 23.907L24.8061 23.5802L24.6809 23.2534C24.0847 23.4817 23.6254 23.9606 23.4078 24.5681L23.7373 24.6861ZM24.8061 23.5802L24.9325 23.9066C25.0997 23.8418 25.3068 23.818 25.8606 23.7593L25.8237 23.4112L25.7868 23.0632C25.2782 23.1171 24.9554 23.1471 24.6797 23.2538L24.8061 23.5802ZM25.8237 23.4112L25.8607 23.7593C26.3259 23.7098 26.6907 23.6712 26.9711 23.6243C27.2467 23.5781 27.4853 23.5177 27.6759 23.4018L27.4941 23.1028L27.3123 22.8037C27.2418 22.8465 27.1149 22.8904 26.8555 22.9339C26.6008 22.9765 26.261 23.0128 25.7867 23.0632L25.8237 23.4112ZM27.4941 23.1028L27.6771 23.4011C28.428 22.9405 28.703 21.9868 28.3738 21.154L28.0483 21.2826L27.7228 21.4112C27.939 21.9582 27.7454 22.538 27.3111 22.8044L27.4941 23.1028ZM28.0483 21.2826L28.3737 21.1536C28.2908 20.9446 28.1415 20.7424 27.9485 20.5194C27.7529 20.2935 27.4858 20.017 27.1429 19.6621L26.8912 19.9053L26.6395 20.1485C26.9878 20.5091 27.2391 20.7696 27.4192 20.9776C27.6019 21.1885 27.6856 21.3173 27.723 21.4116L28.0483 21.2826ZM26.8912 19.9053L27.1429 19.6621L25.2191 17.6705L24.9674 17.9136L24.7156 18.1568L26.6395 20.1485L26.8912 19.9053ZM24.9674 17.9136L24.6584 17.7492C23.8883 19.1959 22.7912 20.4428 21.4544 21.3908L21.6568 21.6763L21.8593 21.9618C23.285 20.9508 24.4551 19.6209 25.2763 18.0781L24.9674 17.9136ZM21.6568 21.6763L21.4544 21.3908C20.1175 22.3388 18.5779 22.9617 16.9579 23.2099L17.0109 23.5559L17.0639 23.9018C18.7915 23.6372 20.4336 22.9729 21.8593 21.9618L21.6568 21.6763Z" fill="black" fill-opacity="0.77" mask="url(#path-4-inside-1_70_9657)"/>
    <defs>
    <linearGradient id="paint0_linear_70_9657" x1="10.3666" y1="2.54094" x2="15.3327" y2="20.8351" gradientUnits="userSpaceOnUse">
    <stop stop-color="#EBD2FE"/>
    <stop offset="1" stop-color="#FBB9DD"/>
    </linearGradient>
    <linearGradient id="paint1_linear_70_9657" x1="7.67798" y1="16.6214" x2="8.88435" y2="27.7232" gradientUnits="userSpaceOnUse">
    <stop stop-color="#EBD2FE"/>
    <stop offset="1" stop-color="#FBB9DD"/>
    </linearGradient>
    </defs>
    </svg>
    